<svg width="280" viewBox="-52 -16 280 32" xmlns="http://www.w3.org/2000/svg">
<path d="M-44,-14 C-36,-12 -26,-6 -20,-1" fill="none" stroke="#85B7EB" stroke-width="1.3" stroke-linecap="round"/>
<path d="M-47,-4.5 C-37,-3 -27,-1 -20,0" fill="none" stroke="#85B7EB" stroke-width="1.3" stroke-linecap="round"/>
<path d="M-44,7 C-36,6 -26,3 -20,0.5" fill="none" stroke="#85B7EB" stroke-width="1" stroke-linecap="round"/>
<path d="M44,-14 C36,-12 26,-6 20,-1" fill="none" stroke="#85B7EB" stroke-width="1.3" stroke-linecap="round"/>
<path d="M47,-4.5 C37,-3 27,-1 20,0" fill="none" stroke="#85B7EB" stroke-width="1.3" stroke-linecap="round"/>
<path d="M44,7 C36,6 26,3 20,0.5" fill="none" stroke="#85B7EB" stroke-width="1" stroke-linecap="round"/>
<circle cx="-38" cy="-11.5" r="1.2" fill="#B5D4F4"/>
<circle cx="-30" cy="-2.5" r="2.1" fill="#85B7EB"/>
<circle cx="-25" cy="2.5" r="1.2" fill="#B5D4F4"/>
<circle cx="32" cy="-9" r="2.1" fill="#85B7EB"/>
<circle cx="41" cy="-3.5" r="2.1" fill="#85B7EB"/>
<circle cx="34" cy="5" r="1.2" fill="#B5D4F4"/>
<path d="M-20,0 C-19,-5 -11,-12 0,-12 C11,-12 19,-5 20,0 C19,5 11,12 0,12 C-11,12 -19,5 -20,0Z" fill="none" stroke="#85B7EB" stroke-width="2"/>
<circle cx="0" cy="0" r="6" fill="none" stroke="#85B7EB" stroke-width="1.3"/>
<circle cx="0" cy="0" r="4.2" fill="none" stroke="#6AAAE6" stroke-width="0.6"/>
<circle cx="0" cy="0" r="2.4" fill="#B5D4F4"/>
<circle cx="1" cy="-1" r="0.9" fill="#1a1a1a"/>
<text x="62" y="5" font-family="system-ui, -apple-system, sans-serif" font-size="22" font-weight="500" fill="#85B7EB" dominant-baseline="central">awareness</text>
</svg>